<svg width="60" height="60" viewBox="0 0 60 60" fill="none" xmlns="http://www.w3.org/2000/svg">
<g clip-path="url(#clip0)">
<path d="M57.6563 27.6562H8.02059L16.2429 19.4737C17.1604 18.5606 17.1639 17.0767 16.2508 16.1592C15.3377 15.2416 13.8536 15.2382 12.9361 16.1512L0.689576 28.3387C0.688755 28.3394 0.688169 28.3403 0.687466 28.341C-0.227651 29.2541 -0.230581 30.7428 0.687232 31.659C0.688052 31.6597 0.688638 31.6605 0.689341 31.6612L12.9359 43.8487C13.8532 44.7616 15.3373 44.7585 16.2506 43.8408C17.1637 42.9233 17.1602 41.4394 16.2427 40.5262L8.02059 32.3437H57.6563C58.9507 32.3437 60 31.2944 60 30C60 28.7055 58.9507 27.6562 57.6563 27.6562Z" fill="white"/>
</g>
<defs>
<clipPath id="clip0">
<rect width="60" height="60" fill="white"/>
</clipPath>
</defs>
</svg>
